<mxfile host="Electron" modified="2024-03-08T08:45:10.407Z" agent="Mozilla/5.0 (Windows NT 10.0; Win64; x64) AppleWebKit/537.36 (KHTML, like Gecko) draw.io/22.0.2 Chrome/114.0.5735.289 Electron/25.8.4 Safari/537.36" etag="VrrIuG4i0Gc4i3leoaHB" version="22.0.2" type="device">
  <diagram name="Page-1" id="eK8__X9o99RUDy5w_Ebs">
    <mxGraphModel dx="407" dy="1663" grid="1" gridSize="10" guides="1" tooltips="1" connect="1" arrows="1" fold="1" page="1" pageScale="1" pageWidth="850" pageHeight="1100" math="0" shadow="0">
      <root>
        <mxCell id="0" />
        <mxCell id="1" parent="0" />
        <mxCell id="IbULiFCdyPEPI01R5Tzu-1" value="" style="html=1;whiteSpace=wrap;fillColor=#ffe6cc;strokeColor=#d79b00;" vertex="1" parent="1">
          <mxGeometry x="180" y="-230" width="1130" height="800" as="geometry" />
        </mxCell>
        <mxCell id="IbULiFCdyPEPI01R5Tzu-2" value="&lt;font style=&quot;font-size: 14px;&quot;&gt;Hệ thống phần mềm cửa hàng online &quot;ESHOPPING&quot;&lt;/font&gt;" style="text;html=1;align=center;verticalAlign=middle;resizable=0;points=[];autosize=1;strokeColor=none;fillColor=none;spacing=5;fontStyle=1" vertex="1" parent="1">
          <mxGeometry x="270" y="-230" width="380" height="40" as="geometry" />
        </mxCell>
        <mxCell id="IbULiFCdyPEPI01R5Tzu-3" value="Hệ thống quản lý&amp;nbsp;&lt;br&gt;sản phẩm" style="shape=umlActor;verticalLabelPosition=bottom;verticalAlign=top;html=1;" vertex="1" parent="1">
          <mxGeometry x="90" y="130" width="30" height="60" as="geometry" />
        </mxCell>
        <mxCell id="IbULiFCdyPEPI01R5Tzu-4" value="Khách hàng" style="shape=umlActor;verticalLabelPosition=bottom;verticalAlign=top;html=1;" vertex="1" parent="1">
          <mxGeometry x="90" y="270" width="30" height="60" as="geometry" />
        </mxCell>
        <mxCell id="IbULiFCdyPEPI01R5Tzu-7" value="Xem danh sách sản phẩm chưa chọn" style="ellipse;whiteSpace=wrap;html=1;" vertex="1" parent="1">
          <mxGeometry x="300" y="-50" width="140" height="70" as="geometry" />
        </mxCell>
        <mxCell id="IbULiFCdyPEPI01R5Tzu-8" value="Hệ thống dịch vụ&amp;nbsp;&lt;br&gt;thanh toán&lt;br&gt;trực truyến" style="shape=umlActor;verticalLabelPosition=bottom;verticalAlign=top;html=1;" vertex="1" parent="1">
          <mxGeometry x="100" y="390" width="30" height="60" as="geometry" />
        </mxCell>
        <mxCell id="IbULiFCdyPEPI01R5Tzu-13" style="rounded=0;orthogonalLoop=1;jettySize=auto;html=1;" edge="1" parent="1" source="IbULiFCdyPEPI01R5Tzu-12" target="IbULiFCdyPEPI01R5Tzu-7">
          <mxGeometry relative="1" as="geometry" />
        </mxCell>
        <mxCell id="IbULiFCdyPEPI01R5Tzu-14" value="&amp;lt;&amp;lt;extend&amp;gt;&amp;gt;" style="edgeLabel;html=1;align=center;verticalAlign=middle;resizable=0;points=[];" vertex="1" connectable="0" parent="IbULiFCdyPEPI01R5Tzu-13">
          <mxGeometry x="-0.4454" y="1" relative="1" as="geometry">
            <mxPoint y="7" as="offset" />
          </mxGeometry>
        </mxCell>
        <mxCell id="IbULiFCdyPEPI01R5Tzu-21" style="rounded=0;orthogonalLoop=1;jettySize=auto;html=1;" edge="1" parent="1" source="IbULiFCdyPEPI01R5Tzu-12" target="IbULiFCdyPEPI01R5Tzu-18">
          <mxGeometry relative="1" as="geometry" />
        </mxCell>
        <mxCell id="IbULiFCdyPEPI01R5Tzu-22" value="&amp;lt;&amp;lt;extend&amp;gt;&amp;gt;" style="edgeLabel;html=1;align=center;verticalAlign=middle;resizable=0;points=[];" vertex="1" connectable="0" parent="IbULiFCdyPEPI01R5Tzu-21">
          <mxGeometry x="-0.3289" y="1" relative="1" as="geometry">
            <mxPoint x="14" y="-9" as="offset" />
          </mxGeometry>
        </mxCell>
        <mxCell id="IbULiFCdyPEPI01R5Tzu-12" value="Đưa sản phẩm vào giỏ hàng hiện tại" style="ellipse;whiteSpace=wrap;html=1;" vertex="1" parent="1">
          <mxGeometry x="240" y="-170" width="140" height="70" as="geometry" />
        </mxCell>
        <mxCell id="IbULiFCdyPEPI01R5Tzu-19" style="rounded=0;orthogonalLoop=1;jettySize=auto;html=1;" edge="1" parent="1" source="IbULiFCdyPEPI01R5Tzu-18" target="IbULiFCdyPEPI01R5Tzu-7">
          <mxGeometry relative="1" as="geometry" />
        </mxCell>
        <mxCell id="IbULiFCdyPEPI01R5Tzu-20" value="&amp;lt;&amp;lt;extend&amp;gt;&amp;gt;" style="edgeLabel;html=1;align=center;verticalAlign=middle;resizable=0;points=[];" vertex="1" connectable="0" parent="IbULiFCdyPEPI01R5Tzu-19">
          <mxGeometry x="-0.0459" y="-1" relative="1" as="geometry">
            <mxPoint x="1" as="offset" />
          </mxGeometry>
        </mxCell>
        <mxCell id="IbULiFCdyPEPI01R5Tzu-18" value="Xem chi tiết sản phẩm" style="ellipse;whiteSpace=wrap;html=1;" vertex="1" parent="1">
          <mxGeometry x="460" y="-135" width="140" height="70" as="geometry" />
        </mxCell>
        <mxCell id="IbULiFCdyPEPI01R5Tzu-25" value="" style="endArrow=none;html=1;rounded=0;entryX=0;entryY=0.5;entryDx=0;entryDy=0;" edge="1" parent="1" source="IbULiFCdyPEPI01R5Tzu-3" target="IbULiFCdyPEPI01R5Tzu-7">
          <mxGeometry width="50" height="50" relative="1" as="geometry">
            <mxPoint x="150" y="-10" as="sourcePoint" />
            <mxPoint x="200" y="-60" as="targetPoint" />
          </mxGeometry>
        </mxCell>
        <mxCell id="IbULiFCdyPEPI01R5Tzu-26" value="Xem danh sách sản phẩm đã chọn" style="ellipse;whiteSpace=wrap;html=1;" vertex="1" parent="1">
          <mxGeometry x="300" y="130" width="140" height="70" as="geometry" />
        </mxCell>
        <mxCell id="IbULiFCdyPEPI01R5Tzu-27" value="" style="endArrow=none;html=1;rounded=0;" edge="1" parent="1" target="IbULiFCdyPEPI01R5Tzu-26">
          <mxGeometry width="50" height="50" relative="1" as="geometry">
            <mxPoint x="130" y="157" as="sourcePoint" />
            <mxPoint x="310" y="-5" as="targetPoint" />
          </mxGeometry>
        </mxCell>
        <mxCell id="IbULiFCdyPEPI01R5Tzu-28" value="Xem danh sách sản phẩm đã chọn" style="ellipse;whiteSpace=wrap;html=1;" vertex="1" parent="1">
          <mxGeometry x="470" y="70" width="140" height="70" as="geometry" />
        </mxCell>
      </root>
    </mxGraphModel>
  </diagram>
</mxfile>
